<svg version="1.0" xmlns="http://www.w3.org/2000/svg"
 width="2048.000000pt" height="2048.000000pt" viewBox="0 0 2048.000000 2048.000000"
 preserveAspectRatio="xMidYMid meet">

<g transform="translate(0.000000,2048.000000) scale(0.100000,-0.100000)"
fill="#E1E1E6" stroke="none">
<path d="M3909 18414 c-436 -78 -773 -440 -829 -888 -14 -112 -14 -14460 0
-14572 29 -230 117 -416 274 -581 143 -150 299 -243 500 -296 l81 -22 2210 0
2210 0 85 23 c429 117 724 460 770 897 13 123 13 14407 0 14530 -42 393 -296
725 -659 861 -180 68 -37 64 -2415 63 -1778 -1 -2164 -3 -2227 -15z"/>
<path d="M12129 18420 c-213 -37 -392 -126 -548 -275 -178 -170 -285 -389
-311 -635 -13 -131 -13 -14409 0 -14540 26 -246 133 -465 311 -635 133 -127
266 -202 449 -253 l95 -27 2210 0 2210 0 81 22 c201 53 357 146 500 296 157
165 245 351 274 581 14 112 14 14460 0 14572 -29 230 -117 416 -274 581 -141
148 -292 238 -494 296 l-77 22 -2190 1 c-1204 1 -2211 -2 -2236 -6z"/>
</g>
</svg>